<svg width="428" height="411" viewBox="0 0 428 411" fill="none" xmlns="http://www.w3.org/2000/svg">
<path d="M56.5 381.169V343.487C56.5 315.738 80.0051 293.244 109 293.244H319C347.995 293.244 371.5 315.738 371.5 343.487V393.73M56.5 406.293C27.5051 406.293 4 382.615 4 353.406V57.2364C4 28.0276 27.5051 4.34912 56.5 4.34912H371.5C400.495 4.34912 424 28.0276 424 57.2365V353.406C424 382.615 400.495 406.293 371.5 406.293H56.5ZM279.625 142.515C279.625 177.2 250.244 205.319 214 205.319C177.756 205.319 148.375 177.2 148.375 142.515C148.375 107.829 177.756 79.7112 214 79.7112C250.244 79.7112 279.625 107.829 279.625 142.515Z" stroke="#4880FF" stroke-width="8" stroke-linecap="round" stroke-linejoin="round"/>
</svg>
