<svg width="560" height="537" viewBox="0 0 560 537" fill="none" xmlns="http://www.w3.org/2000/svg">
<path d="M122.5 444.17V406.487C122.5 378.739 146.005 356.244 175 356.244H385C413.995 356.244 437.5 378.739 437.5 406.487V456.73M122.5 469.294C93.5051 469.294 70 445.615 70 416.406V120.237C70 91.028 93.5051 67.3496 122.5 67.3496H437.5C466.495 67.3496 490 91.0281 490 120.237V416.406C490 445.615 466.495 469.294 437.5 469.294H122.5ZM345.625 205.515C345.625 240.201 316.244 268.319 280 268.319C243.756 268.319 214.375 240.201 214.375 205.515C214.375 170.83 243.756 142.712 280 142.712C316.244 142.712 345.625 170.83 345.625 205.515Z" stroke="black" stroke-width="8" stroke-linecap="round" stroke-linejoin="round"/>
</svg>
