<svg width="16" height="13" viewBox="0 0 16 13" fill="none" xmlns="http://www.w3.org/2000/svg">
<path fill-rule="evenodd" clip-rule="evenodd" d="M3.06455 5.57033C2.95349 3.03363 5.31968 0.900083 8.35514 0.799927C11.3906 0.900083 13.7568 3.03363 13.6457 5.57033C13.6457 6.62393 15.0158 7.65033 15.056 8.70633C15.056 8.72126 15.056 8.73619 15.056 8.75113C15.0856 9.42769 14.4544 9.99668 13.6448 10.0231H10.5887C10.5916 10.5416 10.3577 11.0414 9.93484 11.4207C9.52824 11.7897 8.95538 11.9996 8.35514 11.9996C7.75489 11.9996 7.18203 11.7897 6.77543 11.4207C6.35254 11.0414 6.11869 10.5416 6.12153 10.0231H3.06455C2.25495 9.99668 1.6237 9.42769 1.65335 8.75113C1.65335 8.73619 1.65335 8.72126 1.65335 8.70633C1.69451 7.65353 3.06455 6.62473 3.06455 5.57033Z" stroke="black" stroke-width="1.5" stroke-linecap="round" stroke-linejoin="round"/>
</svg>
