<svg width="16" height="13" viewBox="0 0 16 13" fill="none" xmlns="http://www.w3.org/2000/svg">
<path fill-rule="evenodd" clip-rule="evenodd" d="M3.06489 5.57045C2.95382 3.03375 5.32002 0.900205 8.35547 0.800049C11.3909 0.900205 13.7571 3.03375 13.6461 5.57045C13.6461 6.62405 15.0161 7.65045 15.0563 8.70645C15.0563 8.72138 15.0563 8.73632 15.0563 8.75125C15.086 9.42781 14.4547 9.9968 13.6451 10.0232H10.5891C10.5919 10.5417 10.3581 11.0415 9.93518 11.4208C9.52857 11.7898 8.95572 11.9997 8.35547 11.9997C7.75522 11.9997 7.18237 11.7898 6.77576 11.4208C6.35288 11.0415 6.11902 10.5417 6.12186 10.0232H3.06489C2.25529 9.9968 1.62403 9.42781 1.65368 8.75125C1.65368 8.73632 1.65368 8.72138 1.65368 8.70645C1.69485 7.65365 3.06489 6.62485 3.06489 5.57045Z" stroke="black" stroke-width="1.5" stroke-linecap="round" stroke-linejoin="round"/>
</svg>
