<svg width="16" height="13" viewBox="0 0 16 13" fill="none" xmlns="http://www.w3.org/2000/svg">
<path fill-rule="evenodd" clip-rule="evenodd" d="M3.06492 5.57045C2.95385 3.03375 5.32005 0.900205 8.3555 0.800049C11.391 0.900205 13.7572 3.03375 13.6461 5.57045C13.6461 6.62405 15.0161 7.65045 15.0563 8.70645C15.0563 8.72138 15.0563 8.73632 15.0563 8.75125C15.086 9.42781 14.4547 9.9968 13.6451 10.0232H10.5891C10.592 10.5417 10.3581 11.0415 9.93521 11.4208C9.5286 11.7898 8.95575 11.9997 8.3555 11.9997C7.75525 11.9997 7.1824 11.7898 6.77579 11.4208C6.35291 11.0415 6.11905 10.5417 6.12189 10.0232H3.06492C2.25532 9.9968 1.62406 9.42781 1.65371 8.75125C1.65371 8.73632 1.65371 8.72138 1.65371 8.70645C1.69488 7.65365 3.06492 6.62485 3.06492 5.57045Z" stroke="black" stroke-width="1.5" stroke-linecap="round" stroke-linejoin="round"/>
</svg>
