<svg width="15" height="17" viewBox="0 0 15 17" fill="none" xmlns="http://www.w3.org/2000/svg">
<path fill-rule="evenodd" clip-rule="evenodd" d="M2.20558 7.463C2.0944 4.29213 4.46291 1.6252 7.50133 1.5C10.5397 1.6252 12.9083 4.29213 12.7971 7.463C12.7971 8.78 14.1685 10.063 14.2087 11.383C14.2087 11.4017 14.2087 11.4203 14.2087 11.439C14.2384 12.2847 13.6065 12.9959 12.7961 13.029H9.73712C9.73996 13.677 9.50588 14.3018 9.08258 14.776C8.67558 15.2372 8.10217 15.4996 7.50133 15.4996C6.90049 15.4996 6.32708 15.2372 5.92008 14.776C5.49678 14.3018 5.2627 13.677 5.26554 13.029H2.20558C1.39519 12.9959 0.763318 12.2847 0.792996 11.439C0.792996 11.4203 0.792996 11.4017 0.792996 11.383C0.834205 10.067 2.20558 8.781 2.20558 7.463Z" stroke="black" stroke-width="1.5" stroke-linecap="round" stroke-linejoin="round"/>
</svg>
