<svg width="15" height="13" viewBox="0 0 15 13" fill="none" xmlns="http://www.w3.org/2000/svg">
<path fill-rule="evenodd" clip-rule="evenodd" d="M2.20558 5.57033C2.0944 3.03363 4.46291 0.900083 7.50133 0.799927C10.5397 0.900083 12.9083 3.03363 12.7971 5.57033C12.7971 6.62393 14.1685 7.65033 14.2087 8.70633C14.2087 8.72126 14.2087 8.73619 14.2087 8.75113C14.2384 9.42769 13.6065 9.99668 12.7961 10.0231H9.73712C9.73996 10.5416 9.50588 11.0414 9.08258 11.4207C8.67558 11.7897 8.10217 11.9996 7.50133 11.9996C6.90049 11.9996 6.32708 11.7897 5.92008 11.4207C5.49678 11.0414 5.2627 10.5416 5.26554 10.0231H2.20558C1.39519 9.99668 0.763318 9.42769 0.792996 8.75113C0.792996 8.73619 0.792996 8.72126 0.792996 8.70633C0.834205 7.65353 2.20558 6.62473 2.20558 5.57033Z" stroke="black" stroke-width="1.5" stroke-linecap="round" stroke-linejoin="round"/>
</svg>
