<svg width="7" height="13" viewBox="0 0 7 13" fill="none" xmlns="http://www.w3.org/2000/svg">
<path d="M1.26562 11.2728C0.851411 11.2728 0.515625 11.6086 0.515625 12.0228C0.515625 12.437 0.851411 12.7728 1.26562 12.7728V11.2728ZM5.73721 12.7728C6.15142 12.7728 6.48721 12.437 6.48721 12.0228C6.48721 11.6086 6.15142 11.2728 5.73721 11.2728V12.7728ZM4.45975 1.94958C4.87396 1.94958 5.20975 1.6138 5.20975 1.19958C5.20975 0.785371 4.87396 0.449585 4.45975 0.449585V1.94958ZM2.54308 0.449585C2.12887 0.449585 1.79308 0.785371 1.79308 1.19958C1.79308 1.6138 2.12887 1.94958 2.54308 1.94958V0.449585ZM1.26562 12.7728H5.73721V11.2728H1.26562V12.7728ZM4.45975 0.449585H2.54308V1.94958H4.45975V0.449585Z" fill="black"/>
</svg>
