<svg width="16" height="17" viewBox="0 0 16 17" fill="none" xmlns="http://www.w3.org/2000/svg">
<path d="M1.5 5.6337C1.5 5.35756 1.27614 5.1337 1 5.1337C0.723858 5.1337 0.5 5.35756 0.5 5.6337H1.5ZM15.5 12.05C15.5 11.7739 15.2761 11.55 15 11.55C14.7239 11.55 14.5 11.7739 14.5 12.05H15.5ZM15.5 5.6337C15.5 5.35756 15.2761 5.1337 15 5.1337C14.7239 5.1337 14.5 5.35756 14.5 5.6337H15.5ZM14.5 12.05C14.5 12.3261 14.7239 12.55 15 12.55C15.2761 12.55 15.5 12.3261 15.5 12.05H14.5ZM15 12.55C15.2761 12.55 15.5 12.3261 15.5 12.05C15.5 11.7739 15.2761 11.55 15 11.55V12.55ZM8 11.55C7.72386 11.55 7.5 11.7739 7.5 12.05C7.5 12.3261 7.72386 12.55 8 12.55V11.55ZM7.5 5.6337C7.5 5.90984 7.72386 6.1337 8 6.1337C8.27614 6.1337 8.5 5.90984 8.5 5.6337H7.5ZM8.5 0.5C8.5 0.223858 8.27614 0 8 0C7.72386 0 7.5 0.223858 7.5 0.5H8.5ZM0.5 5.6337V12.05H1.5V5.6337H0.5ZM0.5 12.05C0.5 14.4065 2.24708 16.4 4.5 16.4V15.4C2.88692 15.4 1.5 13.9461 1.5 12.05H0.5ZM4.5 16.4H11.5V15.4H4.5V16.4ZM11.5 16.4C13.7529 16.4 15.5 14.4065 15.5 12.05H14.5C14.5 13.9461 13.1131 15.4 11.5 15.4V16.4ZM14.5 5.6337V12.05H15.5V5.6337H14.5ZM15 11.55H8V12.55H15V11.55ZM8.5 5.6337V0.5H7.5V5.6337H8.5Z" fill="#1C202A" fill-opacity="0.6"/>
</svg>
