<svg width="14" height="12" viewBox="0 0 14 12" fill="none" xmlns="http://www.w3.org/2000/svg">
<path d="M5.75157 1.3494C5.42053 1.10042 5.35401 0.630234 5.60298 0.299196C5.85195 -0.0318413 6.32214 -0.0983683 6.65318 0.150604L5.75157 1.3494ZM13.1829 6L13.6337 5.4006C13.822 5.54228 13.9329 5.76429 13.9329 6C13.9329 6.23571 13.822 6.45772 13.6337 6.5994L13.1829 6ZM6.65318 11.8494C6.32214 12.0984 5.85195 12.0318 5.60298 11.7008C5.35401 11.3698 5.42053 10.8996 5.75157 10.6506L6.65318 11.8494ZM1.09793 2.22466C0.766884 1.9757 0.700343 1.50551 0.949306 1.17446C1.19827 0.843418 1.66846 0.776878 1.9995 1.02584L1.09793 2.22466ZM7.36579 6L7.81658 5.40059C8.00497 5.54227 8.11579 5.76428 8.11579 6C8.11579 6.23572 8.00497 6.45773 7.81658 6.59941L7.36579 6ZM1.9995 10.9742C1.66846 11.2231 1.19827 11.1566 0.949306 10.8255C0.700343 10.4945 0.766884 10.0243 1.09793 9.77534L1.9995 10.9742ZM6.65318 0.150604L13.6337 5.4006L12.7321 6.5994L5.75157 1.3494L6.65318 0.150604ZM13.6337 6.5994L6.65318 11.8494L5.75157 10.6506L12.7321 5.4006L13.6337 6.5994ZM1.9995 1.02584L7.81658 5.40059L6.915 6.59941L1.09793 2.22466L1.9995 1.02584ZM7.81658 6.59941L1.9995 10.9742L1.09793 9.77534L6.915 5.40059L7.81658 6.59941Z" fill="black"/>
</svg>
