<svg width="7" height="13" viewBox="0 0 7 13" fill="none" xmlns="http://www.w3.org/2000/svg">
<path d="M1.2655 11.2728C0.851289 11.2728 0.515503 11.6086 0.515503 12.0228C0.515503 12.437 0.851289 12.7728 1.2655 12.7728V11.2728ZM5.73709 12.7728C6.1513 12.7728 6.48709 12.437 6.48709 12.0228C6.48709 11.6086 6.1513 11.2728 5.73709 11.2728V12.7728ZM4.45963 1.94958C4.87384 1.94958 5.20963 1.6138 5.20963 1.19958C5.20963 0.785371 4.87384 0.449585 4.45963 0.449585V1.94958ZM2.54296 0.449585C2.12875 0.449585 1.79296 0.785371 1.79296 1.19958C1.79296 1.6138 2.12875 1.94958 2.54296 1.94958V0.449585ZM1.2655 12.7728H5.73709V11.2728H1.2655V12.7728ZM4.45963 0.449585H2.54296V1.94958H4.45963V0.449585Z" fill="black"/>
</svg>
