<svg width="14" height="12" viewBox="0 0 14 12" fill="none" xmlns="http://www.w3.org/2000/svg">
<path d="M5.75133 1.3494C5.42029 1.10042 5.35376 0.630234 5.60273 0.299196C5.85171 -0.0318413 6.3219 -0.0983683 6.65293 0.150604L5.75133 1.3494ZM13.1826 6L13.6334 5.4006C13.8218 5.54228 13.9326 5.76429 13.9326 6C13.9326 6.23571 13.8218 6.45772 13.6334 6.5994L13.1826 6ZM6.65293 11.8494C6.3219 12.0984 5.85171 12.0318 5.60273 11.7008C5.35376 11.3698 5.42029 10.8996 5.75133 10.6506L6.65293 11.8494ZM1.09768 2.22466C0.76664 1.9757 0.700099 1.50551 0.949062 1.17446C1.19803 0.843418 1.66821 0.776878 1.99926 1.02584L1.09768 2.22466ZM7.36554 6L7.81633 5.40059C8.00472 5.54227 8.11554 5.76428 8.11554 6C8.11554 6.23572 8.00472 6.45773 7.81633 6.59941L7.36554 6ZM1.99926 10.9742C1.66821 11.2231 1.19803 11.1566 0.949062 10.8255C0.700099 10.4945 0.76664 10.0243 1.09768 9.77534L1.99926 10.9742ZM6.65293 0.150604L13.6334 5.4006L12.7318 6.5994L5.75133 1.3494L6.65293 0.150604ZM13.6334 6.5994L6.65293 11.8494L5.75133 10.6506L12.7318 5.4006L13.6334 6.5994ZM1.99926 1.02584L7.81633 5.40059L6.91476 6.59941L1.09768 2.22466L1.99926 1.02584ZM7.81633 6.59941L1.99926 10.9742L1.09768 9.77534L6.91476 5.40059L7.81633 6.59941Z" fill="black"/>
</svg>
