<svg width="18" height="7" viewBox="0 0 18 7" fill="none" xmlns="http://www.w3.org/2000/svg">
<path d="M14.5907 5.10227C14.3158 5.0752 14.0711 5.27603 14.0441 5.55085C14.017 5.82566 14.2178 6.07038 14.4926 6.09745L14.5907 5.10227ZM16.9166 3.46036L17.4142 3.50991C17.4175 3.4769 17.4175 3.44364 17.4142 3.41064L16.9166 3.46036ZM14.4926 0.824184C14.2178 0.851265 14.017 1.096 14.0441 1.37081C14.0711 1.64562 14.3159 1.84644 14.5907 1.81936L14.4926 0.824184ZM3.50732 6.09745C3.78214 6.07038 3.98297 5.82566 3.9559 5.55085C3.92884 5.27603 3.68411 5.0752 3.4093 5.10227L3.50732 6.09745ZM1.08331 3.46036L0.585791 3.41064C0.582493 3.44364 0.582487 3.4769 0.585774 3.50991L1.08331 3.46036ZM3.40928 1.81936C3.68409 1.84644 3.92882 1.64562 3.9559 1.37081C3.98298 1.096 3.78216 0.851265 3.50735 0.824184L3.40928 1.81936ZM14.4926 6.09745C15.9991 6.24583 17.2613 5.04532 17.4142 3.50991L16.4191 3.41081C16.312 4.48648 15.4626 5.18815 14.5907 5.10227L14.4926 6.09745ZM17.4142 3.41064C17.2608 1.87564 15.9987 0.67577 14.4926 0.824184L14.5907 1.81936C15.4624 1.73346 16.3117 2.43474 16.4191 3.51008L17.4142 3.41064ZM3.4093 5.10227C2.53737 5.18815 1.68798 4.48648 1.58085 3.41081L0.585774 3.50991C0.738689 5.04532 2.00086 6.24583 3.50732 6.09745L3.4093 5.10227ZM1.58083 3.51008C1.6883 2.43474 2.53756 1.73346 3.40928 1.81936L3.50735 0.824184C2.00125 0.67577 0.7392 1.87564 0.585791 3.41064L1.58083 3.51008Z" fill="#1C202A" fill-opacity="0.6"/>
</svg>
