<svg width="14" height="12" viewBox="0 0 14 12" fill="none" xmlns="http://www.w3.org/2000/svg">
<path d="M7.34658 0.150603C7.67762 -0.0983686 8.14781 -0.0318413 8.39678 0.299196C8.64575 0.630234 8.57922 1.10042 8.24819 1.3494L7.34658 0.150603ZM0.816895 6L0.366091 6.5994C0.177709 6.45772 0.0668945 6.23571 0.0668945 6C0.0668945 5.76429 0.177709 5.54228 0.366091 5.4006L0.816895 6ZM8.24819 10.6506C8.57922 10.8996 8.64575 11.3698 8.39678 11.7008C8.14781 12.0318 7.67762 12.0984 7.34658 11.8494L8.24819 10.6506ZM12.0003 1.02584C12.3313 0.776878 12.8015 0.843418 13.0504 1.17446C13.2994 1.50551 13.2329 1.9757 12.9018 2.22466L12.0003 1.02584ZM6.63397 6L6.18318 6.59941C5.99479 6.45773 5.88397 6.23572 5.88397 6C5.88397 5.76428 5.99479 5.54227 6.18318 5.40059L6.63397 6ZM12.9018 9.77534C13.2329 10.0243 13.2994 10.4945 13.0504 10.8255C12.8015 11.1566 12.3313 11.2231 12.0003 10.9742L12.9018 9.77534ZM8.24819 1.3494L1.2677 6.5994L0.366091 5.4006L7.34658 0.150603L8.24819 1.3494ZM1.2677 5.4006L8.24819 10.6506L7.34658 11.8494L0.366091 6.5994L1.2677 5.4006ZM12.9018 2.22466L7.08476 6.59941L6.18318 5.40059L12.0003 1.02584L12.9018 2.22466ZM7.08476 5.40059L12.9018 9.77534L12.0003 10.9742L6.18318 6.59941L7.08476 5.40059Z" fill="black"/>
</svg>
