<svg width="14" height="12" viewBox="0 0 14 12" fill="none" xmlns="http://www.w3.org/2000/svg">
<path d="M7.34676 0.150603C7.6778 -0.0983686 8.14799 -0.0318413 8.39696 0.299196C8.64593 0.630234 8.57941 1.10042 8.24837 1.3494L7.34676 0.150603ZM0.817078 6L0.366274 6.5994C0.177892 6.45772 0.0670776 6.23571 0.0670776 6C0.0670776 5.76429 0.177892 5.54228 0.366274 5.4006L0.817078 6ZM8.24837 10.6506C8.57941 10.8996 8.64593 11.3698 8.39696 11.7008C8.14799 12.0318 7.6778 12.0984 7.34676 11.8494L8.24837 10.6506ZM12.0004 1.02584C12.3315 0.776878 12.8017 0.843418 13.0506 1.17446C13.2996 1.50551 13.2331 1.9757 12.902 2.22466L12.0004 1.02584ZM6.63415 6L6.18336 6.59941C5.99497 6.45773 5.88415 6.23572 5.88415 6C5.88415 5.76428 5.99497 5.54227 6.18336 5.40059L6.63415 6ZM12.902 9.77534C13.2331 10.0243 13.2996 10.4945 13.0506 10.8255C12.8017 11.1566 12.3315 11.2231 12.0004 10.9742L12.902 9.77534ZM8.24837 1.3494L1.26788 6.5994L0.366274 5.4006L7.34676 0.150603L8.24837 1.3494ZM1.26788 5.4006L8.24837 10.6506L7.34676 11.8494L0.366274 6.5994L1.26788 5.4006ZM12.902 2.22466L7.08494 6.59941L6.18336 5.40059L12.0004 1.02584L12.902 2.22466ZM7.08494 5.40059L12.902 9.77534L12.0004 10.9742L6.18336 6.59941L7.08494 5.40059Z" fill="black"/>
</svg>
