<svg width="7" height="16" viewBox="0 0 7 16" fill="none" xmlns="http://www.w3.org/2000/svg">
<path d="M1.26553 14.2785C0.851319 14.2785 0.515533 14.6143 0.515533 15.0285C0.515533 15.4427 0.851319 15.7785 1.26553 15.7785V14.2785ZM5.73712 15.7785C6.15133 15.7785 6.48712 15.4427 6.48712 15.0285C6.48712 14.6143 6.15133 14.2785 5.73712 14.2785V15.7785ZM4.45966 2.24951C4.87387 2.24951 5.20966 1.91373 5.20966 1.49951C5.20966 1.0853 4.87387 0.749512 4.45966 0.749512V2.24951ZM2.54299 0.749512C2.12878 0.749512 1.79299 1.0853 1.79299 1.49951C1.79299 1.91373 2.12878 2.24951 2.54299 2.24951V0.749512ZM1.26553 15.7785H5.73712V14.2785H1.26553V15.7785ZM4.45966 0.749512H2.54299V2.24951H4.45966V0.749512Z" fill="black"/>
</svg>
