<svg width="18" height="7" viewBox="0 0 18 7" fill="none" xmlns="http://www.w3.org/2000/svg">
<path d="M14.5906 5.10239C14.3158 5.07532 14.0711 5.27616 14.044 5.55097C14.0169 5.82578 14.2178 6.0705 14.4926 6.09757L14.5906 5.10239ZM16.9166 3.46048L17.4141 3.51003C17.4174 3.47702 17.4174 3.44377 17.4141 3.41076L16.9166 3.46048ZM14.4926 0.824307C14.2177 0.851387 14.0169 1.09612 14.044 1.37093C14.0711 1.64574 14.3158 1.84657 14.5906 1.81949L14.4926 0.824307ZM3.50726 6.09757C3.78208 6.0705 3.98291 5.82578 3.95584 5.55097C3.92878 5.27616 3.68405 5.07532 3.40924 5.10239L3.50726 6.09757ZM1.08325 3.46048L0.58573 3.41076C0.582432 3.44377 0.582426 3.47702 0.585713 3.51003L1.08325 3.46048ZM3.40922 1.81949C3.68403 1.84657 3.92876 1.64574 3.95584 1.37093C3.98292 1.09612 3.7821 0.851387 3.50729 0.824307L3.40922 1.81949ZM14.4926 6.09757C15.999 6.24595 17.2612 5.04544 17.4141 3.51003L16.419 3.41093C16.3119 4.4866 15.4625 5.18827 14.5906 5.10239L14.4926 6.09757ZM17.4141 3.41076C17.2607 1.87576 15.9986 0.675892 14.4926 0.824307L14.5906 1.81949C15.4623 1.73358 16.3116 2.43486 16.4191 3.5102L17.4141 3.41076ZM3.40924 5.10239C2.53731 5.18827 1.68792 4.4866 1.58079 3.41093L0.585713 3.51003C0.738628 5.04544 2.00079 6.24595 3.50726 6.09757L3.40924 5.10239ZM1.58077 3.5102C1.68824 2.43486 2.5375 1.73358 3.40922 1.81949L3.50729 0.824307C2.00119 0.675892 0.739139 1.87576 0.58573 3.41076L1.58077 3.5102Z" fill="#1C202A" fill-opacity="0.6"/>
</svg>
