<svg width="18" height="18" viewBox="0 0 18 18" fill="none" xmlns="http://www.w3.org/2000/svg">
<path d="M0.693324 5.84153C0.475224 6.0109 0.435723 6.32501 0.605095 6.54311C0.774468 6.76121 1.08858 6.80071 1.30668 6.63133L0.693324 5.84153ZM5.743 2.5531L6.04968 2.948L6.05022 2.94758L5.743 2.5531ZM12.256 2.5531L11.9488 2.94758L11.9494 2.94803L12.256 2.5531ZM16.6934 6.63137C16.9115 6.80072 17.2256 6.76118 17.3949 6.54307C17.5643 6.32495 17.5248 6.01084 17.3066 5.84149L16.6934 6.63137ZM3.38194 8.30672C3.38194 8.03058 3.15808 7.80672 2.88194 7.80672C2.6058 7.80672 2.38194 8.03058 2.38194 8.30672H3.38194ZM2.88194 12.4461L3.38194 12.4496V12.4461H2.88194ZM3.97305 15.3606L4.34294 15.0242L3.97305 15.3606ZM6.64694 16.5856L6.64296 17.0856H6.64694V16.5856ZM11.3529 16.5856V17.0856L11.3569 17.0855L11.3529 16.5856ZM14.0268 15.3606L14.3967 15.697L14.0268 15.3606ZM15.1179 12.4461H14.6179L14.618 12.4496L15.1179 12.4461ZM15.6179 8.30672C15.6179 8.03058 15.3941 7.80672 15.1179 7.80672C14.8418 7.80672 14.6179 8.03058 14.6179 8.30672H15.6179ZM1.30668 6.63133L6.04968 2.948L5.43632 2.15819L0.693324 5.84153L1.30668 6.63133ZM6.05022 2.94758C7.81527 1.57297 10.1837 1.57297 11.9488 2.94758L12.5632 2.15861C10.4369 0.50263 7.56214 0.50263 5.43578 2.15861L6.05022 2.94758ZM11.9494 2.94803L16.6934 6.63137L17.3066 5.84149L12.5626 2.15816L11.9494 2.94803ZM2.38194 8.30672V12.4461H3.38194V8.30672H2.38194ZM2.38195 12.4427C2.37368 13.6528 2.80905 14.8239 3.60317 15.697L4.34294 15.0242C3.7249 14.3447 3.3753 13.4191 3.38193 12.4496L2.38195 12.4427ZM3.60317 15.697C4.39851 16.5715 5.4909 17.0764 6.64296 17.0855L6.65092 16.0856C5.79103 16.0787 4.95976 15.7023 4.34294 15.0242L3.60317 15.697ZM6.64694 17.0856H11.3529V16.0856H6.64694V17.0856ZM11.3569 17.0855C12.509 17.0764 13.6014 16.5715 14.3967 15.697L13.6569 15.0242C13.0401 15.7023 12.2088 16.0787 11.349 16.0856L11.3569 17.0855ZM14.3967 15.697C15.1908 14.8239 15.6262 13.6528 15.6179 12.4427L14.618 12.4496C14.6246 13.4191 14.275 14.3447 13.6569 15.0242L14.3967 15.697ZM15.6179 12.4461V8.30672H14.6179V12.4461H15.6179Z" fill="#1C202A"/>
</svg>
