<svg width="7" height="13" viewBox="0 0 7 13" fill="none" xmlns="http://www.w3.org/2000/svg">
<path d="M1.12183 11.2729C0.707612 11.2729 0.371826 11.6087 0.371826 12.0229C0.371826 12.4371 0.707612 12.7729 1.12183 12.7729V11.2729ZM5.58905 12.7729C6.00326 12.7729 6.33905 12.4371 6.33905 12.0229C6.33905 11.6087 6.00326 11.2729 5.58905 11.2729V12.7729ZM4.31283 1.94971C4.72705 1.94971 5.06283 1.61392 5.06283 1.19971C5.06283 0.785494 4.72705 0.449707 4.31283 0.449707V1.94971ZM2.39804 0.449707C1.98382 0.449707 1.64804 0.785494 1.64804 1.19971C1.64804 1.61392 1.98382 1.94971 2.39804 1.94971V0.449707ZM1.12183 12.7729H5.58905V11.2729H1.12183V12.7729ZM4.31283 0.449707H2.39804V1.94971H4.31283V0.449707Z" fill="black"/>
</svg>
