<svg width="7" height="16" viewBox="0 0 7 16" fill="none" xmlns="http://www.w3.org/2000/svg">
<path d="M1.2655 14.2785C0.851289 14.2785 0.515503 14.6143 0.515503 15.0285C0.515503 15.4427 0.851289 15.7785 1.2655 15.7785V14.2785ZM5.73709 15.7785C6.1513 15.7785 6.48709 15.4427 6.48709 15.0285C6.48709 14.6143 6.1513 14.2785 5.73709 14.2785V15.7785ZM4.45963 2.24951C4.87384 2.24951 5.20963 1.91373 5.20963 1.49951C5.20963 1.0853 4.87384 0.749512 4.45963 0.749512V2.24951ZM2.54296 0.749512C2.12875 0.749512 1.79296 1.0853 1.79296 1.49951C1.79296 1.91373 2.12875 2.24951 2.54296 2.24951V0.749512ZM1.2655 15.7785H5.73709V14.2785H1.2655V15.7785ZM4.45963 0.749512H2.54296V2.24951H4.45963V0.749512Z" fill="black"/>
</svg>
