<svg width="16" height="20" viewBox="0 0 16 20" fill="none" xmlns="http://www.w3.org/2000/svg">
<path d="M10 3.0999C9.72386 3.0999 9.5 3.32376 9.5 3.5999C9.5 3.87604 9.72386 4.0999 10 4.0999V3.0999ZM6 4.0999C6.27614 4.0999 6.5 3.87604 6.5 3.5999C6.5 3.32376 6.27614 3.0999 6 3.0999V4.0999ZM10.5 3.5999C10.5 3.32376 10.2761 3.0999 10 3.0999C9.72386 3.0999 9.5 3.32376 9.5 3.5999H10.5ZM9.5 4.6999C9.5 4.97604 9.72386 5.1999 10 5.1999C10.2761 5.1999 10.5 4.97604 10.5 4.6999H9.5ZM9.5 3.5999C9.5 3.87604 9.72386 4.0999 10 4.0999C10.2761 4.0999 10.5 3.87604 10.5 3.5999H9.5ZM10.5 1.3999C10.5 1.12376 10.2761 0.899902 10 0.899902C9.72386 0.899902 9.5 1.12376 9.5 1.3999H10.5ZM10 4.0999C10.2761 4.0999 10.5 3.87604 10.5 3.5999C10.5 3.32376 10.2761 3.0999 10 3.0999V4.0999ZM6 3.0999C5.72386 3.0999 5.5 3.32376 5.5 3.5999C5.5 3.87604 5.72386 4.0999 6 4.0999V3.0999ZM6.5 3.5999C6.5 3.32376 6.27614 3.0999 6 3.0999C5.72386 3.0999 5.5 3.32376 5.5 3.5999H6.5ZM5.5 4.6999C5.5 4.97604 5.72386 5.1999 6 5.1999C6.27614 5.1999 6.5 4.97604 6.5 4.6999H5.5ZM5.5 3.5999C5.5 3.87604 5.72386 4.0999 6 4.0999C6.27614 4.0999 6.5 3.87604 6.5 3.5999H5.5ZM6.5 1.3999C6.5 1.12376 6.27614 0.899902 6 0.899902C5.72386 0.899902 5.5 1.12376 5.5 1.3999H6.5ZM1.68252 16.9636C1.46919 17.139 1.43839 17.4541 1.61373 17.6674C1.78907 17.8807 2.10415 17.9115 2.31748 17.7362L1.68252 16.9636ZM13.6825 17.7362C13.8958 17.9115 14.2109 17.8807 14.3863 17.6674C14.5616 17.4541 14.5308 17.139 14.3175 16.9636L13.6825 17.7362ZM10 4.0999H11V3.0999H10V4.0999ZM11 4.0999C12.8892 4.0999 14.5 5.80008 14.5 7.9999H15.5C15.5 5.33962 13.5291 3.0999 11 3.0999V4.0999ZM14.5 7.9999V14.5999H15.5V7.9999H14.5ZM14.5 14.5999C14.5 16.7997 12.8892 18.4999 11 18.4999V19.4999C13.5291 19.4999 15.5 17.2602 15.5 14.5999H14.5ZM11 18.4999H5V19.4999H11V18.4999ZM5 18.4999C3.11078 18.4999 1.5 16.7997 1.5 14.5999H0.5C0.5 17.2602 2.47094 19.4999 5 19.4999V18.4999ZM1.5 14.5999V7.9999H0.5V14.5999H1.5ZM1.5 7.9999C1.5 5.80008 3.11078 4.0999 5 4.0999V3.0999C2.47094 3.0999 0.5 5.33962 0.5 7.9999H1.5ZM5 4.0999H6V3.0999H5V4.0999ZM9.5 3.5999V4.6999H10.5V3.5999H9.5ZM10.5 3.5999V1.3999H9.5V3.5999H10.5ZM10 3.0999H6V4.0999H10V3.0999ZM5.5 3.5999V4.6999H6.5V3.5999H5.5ZM6.5 3.5999V1.3999H5.5V3.5999H6.5ZM2.31748 17.7362C5.6912 14.9633 10.3088 14.9633 13.6825 17.7362L14.3175 16.9636C10.5748 13.8874 5.42522 13.8874 1.68252 16.9636L2.31748 17.7362Z" fill="#1C202A" fill-opacity="0.6"/>
</svg>
