<svg width="7" height="16" viewBox="0 0 7 16" fill="none" xmlns="http://www.w3.org/2000/svg">
<path d="M1.26562 14.2785C0.851411 14.2785 0.515625 14.6143 0.515625 15.0285C0.515625 15.4427 0.851411 15.7785 1.26562 15.7785V14.2785ZM5.73721 15.7785C6.15142 15.7785 6.48721 15.4427 6.48721 15.0285C6.48721 14.6143 6.15142 14.2785 5.73721 14.2785V15.7785ZM4.45975 2.24951C4.87396 2.24951 5.20975 1.91373 5.20975 1.49951C5.20975 1.0853 4.87396 0.749512 4.45975 0.749512V2.24951ZM2.54308 0.749512C2.12887 0.749512 1.79308 1.0853 1.79308 1.49951C1.79308 1.91373 2.12887 2.24951 2.54308 2.24951V0.749512ZM1.26562 15.7785H5.73721V14.2785H1.26562V15.7785ZM4.45975 0.749512H2.54308V2.24951H4.45975V0.749512Z" fill="black"/>
</svg>
