<svg width="18" height="18" viewBox="0 0 18 18" fill="none" xmlns="http://www.w3.org/2000/svg">
<path d="M0.693324 5.84165C0.475224 6.01102 0.435723 6.32513 0.605095 6.54323C0.774468 6.76133 1.08858 6.80083 1.30668 6.63146L0.693324 5.84165ZM5.743 2.55322L6.04968 2.94812L6.05022 2.9477L5.743 2.55322ZM12.256 2.55322L11.9488 2.9477L11.9494 2.94815L12.256 2.55322ZM16.6934 6.63149C16.9115 6.80084 17.2256 6.76131 17.3949 6.54319C17.5643 6.32507 17.5248 6.01097 17.3066 5.84162L16.6934 6.63149ZM3.38194 8.30684C3.38194 8.0307 3.15808 7.80684 2.88194 7.80684C2.6058 7.80684 2.38194 8.0307 2.38194 8.30684H3.38194ZM2.88194 12.4463L3.38194 12.4497V12.4463H2.88194ZM3.97305 15.3607L4.34294 15.0243L3.97305 15.3607ZM6.64694 16.5857L6.64296 17.0857H6.64694V16.5857ZM11.3529 16.5857V17.0857L11.3569 17.0857L11.3529 16.5857ZM14.0268 15.3607L14.3967 15.6972L14.0268 15.3607ZM15.1179 12.4463H14.6179L14.618 12.4497L15.1179 12.4463ZM15.6179 8.30684C15.6179 8.0307 15.3941 7.80684 15.1179 7.80684C14.8418 7.80684 14.6179 8.0307 14.6179 8.30684H15.6179ZM1.30668 6.63146L6.04968 2.94812L5.43632 2.15831L0.693324 5.84165L1.30668 6.63146ZM6.05022 2.9477C7.81527 1.5731 10.1837 1.5731 11.9488 2.9477L12.5632 2.15874C10.4369 0.502752 7.56214 0.502752 5.43578 2.15874L6.05022 2.9477ZM11.9494 2.94815L16.6934 6.63149L17.3066 5.84162L12.5626 2.15828L11.9494 2.94815ZM2.38194 8.30684V12.4463H3.38194V8.30684H2.38194ZM2.38195 12.4428C2.37368 13.6529 2.80905 14.8241 3.60317 15.6972L4.34294 15.0243C3.7249 14.3448 3.3753 13.4192 3.38193 12.4497L2.38195 12.4428ZM3.60317 15.6972C4.39851 16.5716 5.4909 17.0765 6.64296 17.0857L6.65092 16.0857C5.79103 16.0788 4.95976 15.7025 4.34294 15.0243L3.60317 15.6972ZM6.64694 17.0857H11.3529V16.0857H6.64694V17.0857ZM11.3569 17.0857C12.509 17.0765 13.6014 16.5716 14.3967 15.6972L13.6569 15.0243C13.0401 15.7025 12.2088 16.0788 11.349 16.0857L11.3569 17.0857ZM14.3967 15.6972C15.1908 14.8241 15.6262 13.6529 15.6179 12.4428L14.618 12.4497C14.6246 13.4192 14.275 14.3448 13.6569 15.0243L14.3967 15.6972ZM15.6179 12.4463V8.30684H14.6179V12.4463H15.6179Z" fill="#1C202A"/>
</svg>
