<svg width="7" height="13" viewBox="0 0 7 13" fill="none" xmlns="http://www.w3.org/2000/svg">
<path d="M1.12186 11.2729C0.707643 11.2729 0.371856 11.6087 0.371856 12.0229C0.371856 12.4371 0.707643 12.7729 1.12186 12.7729V11.2729ZM5.58908 12.7729C6.00329 12.7729 6.33908 12.4371 6.33908 12.0229C6.33908 11.6087 6.00329 11.2729 5.58908 11.2729V12.7729ZM4.31286 1.94971C4.72708 1.94971 5.06286 1.61392 5.06286 1.19971C5.06286 0.785494 4.72708 0.449707 4.31286 0.449707V1.94971ZM2.39807 0.449707C1.98385 0.449707 1.64807 0.785494 1.64807 1.19971C1.64807 1.61392 1.98385 1.94971 2.39807 1.94971V0.449707ZM1.12186 12.7729H5.58908V11.2729H1.12186V12.7729ZM4.31286 0.449707H2.39807V1.94971H4.31286V0.449707Z" fill="black"/>
</svg>
