<svg width="18" height="7" viewBox="0 0 18 7" fill="none" xmlns="http://www.w3.org/2000/svg">
<path d="M14.6151 4.85359C14.2029 4.81299 13.8358 5.11424 13.7952 5.52646C13.7546 5.93868 14.0558 6.30577 14.4681 6.34637L14.6151 4.85359ZM16.9166 3.46048L17.6629 3.53481C17.6678 3.48529 17.6678 3.43541 17.6629 3.3859L16.9166 3.46048ZM14.468 0.575512C14.0558 0.616133 13.7546 0.98323 13.7952 1.39545C13.8358 1.80766 14.2029 2.1089 14.6151 2.06828L14.468 0.575512ZM3.53177 6.34637C3.94399 6.30577 4.24524 5.93868 4.20464 5.52646C4.16404 5.11424 3.79695 4.81299 3.38473 4.85359L3.53177 6.34637ZM1.08325 3.46048L0.33697 3.3859C0.332021 3.43541 0.332013 3.48529 0.336944 3.53481L1.08325 3.46048ZM3.3847 2.06828C3.79692 2.1089 4.16402 1.80766 4.20464 1.39545C4.24526 0.98323 3.94402 0.616133 3.5318 0.575512L3.3847 2.06828ZM14.4681 6.34637C16.1332 6.51038 17.4985 5.18515 17.6629 3.53481L16.1703 3.38615C16.0746 4.34689 15.3284 4.92385 14.6151 4.85359L14.4681 6.34637ZM17.6629 3.3859C17.498 1.73598 16.1327 0.411469 14.468 0.575512L14.6151 2.06828C15.3283 1.99801 16.0743 2.57463 16.1703 3.53506L17.6629 3.3859ZM3.38473 4.85359C2.67144 4.92385 1.92524 4.34689 1.82956 3.38615L0.336944 3.53481C0.501305 5.18515 1.86667 6.51038 3.53177 6.34637L3.38473 4.85359ZM1.82953 3.53506C1.92552 2.57463 2.67158 1.99801 3.3847 2.06828L3.5318 0.575512C1.86711 0.411469 0.501863 1.73598 0.33697 3.3859L1.82953 3.53506Z" fill="black"/>
</svg>
