<svg width="18" height="18" viewBox="0 0 18 18" fill="none" xmlns="http://www.w3.org/2000/svg">
<path d="M0.693324 5.8414C0.475224 6.01078 0.435723 6.32488 0.605095 6.54298C0.774468 6.76108 1.08858 6.80059 1.30668 6.63121L0.693324 5.8414ZM5.743 2.55297L6.04968 2.94788L6.05022 2.94746L5.743 2.55297ZM12.256 2.55297L11.9488 2.94746L11.9494 2.94791L12.256 2.55297ZM16.6934 6.63124C16.9115 6.80059 17.2256 6.76106 17.3949 6.54294C17.5643 6.32483 17.5248 6.01072 17.3066 5.84137L16.6934 6.63124ZM3.38194 8.3066C3.38194 8.03045 3.15808 7.8066 2.88194 7.8066C2.6058 7.8066 2.38194 8.03045 2.38194 8.3066H3.38194ZM2.88194 12.446L3.38194 12.4494V12.446H2.88194ZM3.97305 15.3605L4.34294 15.0241L3.97305 15.3605ZM6.64694 16.5854L6.64296 17.0854H6.64694V16.5854ZM11.3529 16.5854V17.0854L11.3569 17.0854L11.3529 16.5854ZM14.0268 15.3605L14.3967 15.6969L14.0268 15.3605ZM15.1179 12.446H14.6179L14.618 12.4494L15.1179 12.446ZM15.6179 8.3066C15.6179 8.03045 15.3941 7.8066 15.1179 7.8066C14.8418 7.8066 14.6179 8.03045 14.6179 8.3066H15.6179ZM1.30668 6.63121L6.04968 2.94788L5.43632 2.15807L0.693324 5.8414L1.30668 6.63121ZM6.05022 2.94746C7.81527 1.57285 10.1837 1.57285 11.9488 2.94746L12.5632 2.15849C10.4369 0.502508 7.56214 0.502508 5.43578 2.15849L6.05022 2.94746ZM11.9494 2.94791L16.6934 6.63124L17.3066 5.84137L12.5626 2.15804L11.9494 2.94791ZM2.38194 8.3066V12.446H3.38194V8.3066H2.38194ZM2.38195 12.4426C2.37368 13.6527 2.80905 14.8238 3.60317 15.6969L4.34294 15.0241C3.7249 14.3446 3.3753 13.419 3.38193 12.4494L2.38195 12.4426ZM3.60317 15.6969C4.39851 16.5714 5.4909 17.0762 6.64296 17.0854L6.65092 16.0854C5.79103 16.0786 4.95976 15.7022 4.34294 15.0241L3.60317 15.6969ZM6.64694 17.0854H11.3529V16.0854H6.64694V17.0854ZM11.3569 17.0854C12.509 17.0762 13.6014 16.5714 14.3967 15.6969L13.6569 15.0241C13.0401 15.7022 12.2088 16.0786 11.349 16.0854L11.3569 17.0854ZM14.3967 15.6969C15.1908 14.8238 15.6262 13.6527 15.6179 12.4426L14.618 12.4494C14.6246 13.419 14.275 14.3446 13.6569 15.0241L14.3967 15.6969ZM15.6179 12.446V8.3066H14.6179V12.446H15.6179Z" fill="#1C202A" fill-opacity="0.6"/>
</svg>
