<svg width="16" height="20" viewBox="0 0 16 20" fill="none" xmlns="http://www.w3.org/2000/svg">
<path d="M10 3.10002C9.72386 3.10002 9.5 3.32388 9.5 3.60002C9.5 3.87617 9.72386 4.10002 10 4.10002V3.10002ZM6 4.10002C6.27614 4.10002 6.5 3.87617 6.5 3.60002C6.5 3.32388 6.27614 3.10002 6 3.10002V4.10002ZM10.5 3.60002C10.5 3.32388 10.2761 3.10002 10 3.10002C9.72386 3.10002 9.5 3.32388 9.5 3.60002H10.5ZM9.5 4.70002C9.5 4.97617 9.72386 5.20002 10 5.20002C10.2761 5.20002 10.5 4.97617 10.5 4.70002H9.5ZM9.5 3.60002C9.5 3.87617 9.72386 4.10002 10 4.10002C10.2761 4.10002 10.5 3.87617 10.5 3.60002H9.5ZM10.5 1.40002C10.5 1.12388 10.2761 0.900024 10 0.900024C9.72386 0.900024 9.5 1.12388 9.5 1.40002H10.5ZM10 4.10002C10.2761 4.10002 10.5 3.87617 10.5 3.60002C10.5 3.32388 10.2761 3.10002 10 3.10002V4.10002ZM6 3.10002C5.72386 3.10002 5.5 3.32388 5.5 3.60002C5.5 3.87617 5.72386 4.10002 6 4.10002V3.10002ZM6.5 3.60002C6.5 3.32388 6.27614 3.10002 6 3.10002C5.72386 3.10002 5.5 3.32388 5.5 3.60002H6.5ZM5.5 4.70002C5.5 4.97617 5.72386 5.20002 6 5.20002C6.27614 5.20002 6.5 4.97617 6.5 4.70002H5.5ZM5.5 3.60002C5.5 3.87617 5.72386 4.10002 6 4.10002C6.27614 4.10002 6.5 3.87617 6.5 3.60002H5.5ZM6.5 1.40002C6.5 1.12388 6.27614 0.900024 6 0.900024C5.72386 0.900024 5.5 1.12388 5.5 1.40002H6.5ZM1.68252 16.9638C1.46919 17.1391 1.43839 17.4542 1.61373 17.6675C1.78907 17.8808 2.10415 17.9116 2.31748 17.7363L1.68252 16.9638ZM13.6825 17.7363C13.8958 17.9116 14.2109 17.8808 14.3863 17.6675C14.5616 17.4542 14.5308 17.1391 14.3175 16.9638L13.6825 17.7363ZM10 4.10002H11V3.10002H10V4.10002ZM11 4.10002C12.8892 4.10002 14.5 5.8002 14.5 8.00002H15.5C15.5 5.33974 13.5291 3.10002 11 3.10002V4.10002ZM14.5 8.00002V14.6H15.5V8.00002H14.5ZM14.5 14.6C14.5 16.7998 12.8892 18.5 11 18.5V19.5C13.5291 19.5 15.5 17.2603 15.5 14.6H14.5ZM11 18.5H5V19.5H11V18.5ZM5 18.5C3.11078 18.5 1.5 16.7998 1.5 14.6H0.5C0.5 17.2603 2.47094 19.5 5 19.5V18.5ZM1.5 14.6V8.00002H0.5V14.6H1.5ZM1.5 8.00002C1.5 5.8002 3.11078 4.10002 5 4.10002V3.10002C2.47094 3.10002 0.5 5.33974 0.5 8.00002H1.5ZM5 4.10002H6V3.10002H5V4.10002ZM9.5 3.60002V4.70002H10.5V3.60002H9.5ZM10.5 3.60002V1.40002H9.5V3.60002H10.5ZM10 3.10002H6V4.10002H10V3.10002ZM5.5 3.60002V4.70002H6.5V3.60002H5.5ZM6.5 3.60002V1.40002H5.5V3.60002H6.5ZM2.31748 17.7363C5.6912 14.9634 10.3088 14.9634 13.6825 17.7363L14.3175 16.9638C10.5748 13.8876 5.42522 13.8876 1.68252 16.9638L2.31748 17.7363Z" fill="#1C202A" fill-opacity="0.6"/>
</svg>
