<svg width="14" height="12" viewBox="0 0 14 12" fill="none" xmlns="http://www.w3.org/2000/svg">
<path d="M7.34682 0.150603C7.67786 -0.0983686 8.14805 -0.0318413 8.39702 0.299196C8.646 0.630234 8.57947 1.10042 8.24843 1.3494L7.34682 0.150603ZM0.817139 6L0.366335 6.5994C0.177953 6.45772 0.0671387 6.23571 0.0671387 6C0.0671387 5.76429 0.177953 5.54228 0.366335 5.4006L0.817139 6ZM8.24843 10.6506C8.57947 10.8996 8.646 11.3698 8.39702 11.7008C8.14805 12.0318 7.67786 12.0984 7.34682 11.8494L8.24843 10.6506ZM12.0005 1.02584C12.3315 0.776878 12.8017 0.843418 13.0507 1.17446C13.2997 1.50551 13.2331 1.9757 12.9021 2.22466L12.0005 1.02584ZM6.63421 6L6.18342 6.59941C5.99503 6.45773 5.88421 6.23572 5.88421 6C5.88421 5.76428 5.99503 5.54227 6.18342 5.40059L6.63421 6ZM12.9021 9.77534C13.2331 10.0243 13.2997 10.4945 13.0507 10.8255C12.8017 11.1566 12.3315 11.2231 12.0005 10.9742L12.9021 9.77534ZM8.24843 1.3494L1.26794 6.5994L0.366335 5.4006L7.34682 0.150603L8.24843 1.3494ZM1.26794 5.4006L8.24843 10.6506L7.34682 11.8494L0.366335 6.5994L1.26794 5.4006ZM12.9021 2.22466L7.085 6.59941L6.18342 5.40059L12.0005 1.02584L12.9021 2.22466ZM7.085 5.40059L12.9021 9.77534L12.0005 10.9742L6.18342 6.59941L7.085 5.40059Z" fill="black"/>
</svg>
