<svg width="7" height="13" viewBox="0 0 7 13" fill="none" xmlns="http://www.w3.org/2000/svg">
<path d="M1.12158 11.2728C0.707368 11.2728 0.371582 11.6086 0.371582 12.0228C0.371582 12.437 0.707368 12.7728 1.12158 12.7728V11.2728ZM5.5888 12.7728C6.00302 12.7728 6.3388 12.437 6.3388 12.0228C6.3388 11.6086 6.00302 11.2728 5.5888 11.2728V12.7728ZM4.31259 1.94958C4.7268 1.94958 5.06259 1.6138 5.06259 1.19958C5.06259 0.785371 4.7268 0.449585 4.31259 0.449585V1.94958ZM2.39779 0.449585C1.98358 0.449585 1.64779 0.785371 1.64779 1.19958C1.64779 1.6138 1.98358 1.94958 2.39779 1.94958V0.449585ZM1.12158 12.7728H5.5888V11.2728H1.12158V12.7728ZM4.31259 0.449585H2.39779V1.94958H4.31259V0.449585Z" fill="black"/>
</svg>
