<svg width="8" height="15" viewBox="0 0 8 15" fill="none" xmlns="http://www.w3.org/2000/svg">
<path d="M0.5 5.80002C0.5 6.07617 0.723858 6.30002 1 6.30002C1.27614 6.30002 1.5 6.07617 1.5 5.80002H0.5ZM1.5 1.40002C1.5 1.12388 1.27614 0.900024 1 0.900024C0.723858 0.900024 0.5 1.12388 0.5 1.40002H1.5ZM6.5 5.80002C6.5 6.07617 6.72386 6.30002 7 6.30002C7.27614 6.30002 7.5 6.07617 7.5 5.80002H6.5ZM7.5 1.40002C7.5 1.12388 7.27614 0.900024 7 0.900024C6.72386 0.900024 6.5 1.12388 6.5 1.40002H7.5ZM0.875 9.44212C0.875 9.71827 1.09886 9.94212 1.375 9.94212C1.65114 9.94212 1.875 9.71827 1.875 9.44212H0.875ZM4 9.44212L4.4994 9.46656C4.4998 9.45842 4.5 9.45027 4.5 9.44212H4ZM3.44669 10.6836L3.79126 11.0459L3.44669 10.6836ZM2.25 11.1064L2.19992 10.6089C1.94446 10.6347 1.75 10.8497 1.75 11.1064C1.75 11.3632 1.94447 11.5782 2.19993 11.6039L2.25 11.1064ZM3.44634 11.5289L3.79079 11.1665V11.1665L3.44634 11.5289ZM4 12.7696H4.5C4.5 12.7614 4.4998 12.7531 4.49939 12.7449L4 12.7696ZM1.875 12.7696C1.875 12.4935 1.65114 12.2696 1.375 12.2696C1.09886 12.2696 0.875 12.4935 0.875 12.7696H1.875ZM5.40555 8.6672C5.20539 8.85743 5.19734 9.17391 5.38757 9.37408C5.57781 9.57424 5.89429 9.58229 6.09445 9.39205L5.40555 8.6672ZM6.625 8.19802H7.125C7.125 7.9981 7.00591 7.8174 6.8222 7.73855C6.63848 7.65971 6.42546 7.69787 6.28055 7.8356L6.625 8.19802ZM6.125 14.0214C6.125 14.2976 6.34886 14.5214 6.625 14.5214C6.90114 14.5214 7.125 14.2976 7.125 14.0214H6.125ZM1.5 5.80002V1.40002H0.5V5.80002H1.5ZM7.5 5.80002V1.40002H6.5V5.80002H7.5ZM1.875 9.44212C1.875 9.17154 1.97591 9.00051 2.1077 8.88925C2.25053 8.76866 2.45917 8.69555 2.6875 8.69555C2.91583 8.69555 3.12447 8.76866 3.2673 8.88925C3.39909 9.00051 3.5 9.17154 3.5 9.44212H4.5C4.5 8.88166 4.27278 8.4294 3.91239 8.12514C3.56303 7.8302 3.11542 7.69555 2.6875 7.69555C2.25958 7.69555 1.81197 7.8302 1.46261 8.12514C1.10222 8.4294 0.875 8.88166 0.875 9.44212H1.875ZM3.5006 9.41769C3.48305 9.77623 3.33376 10.1009 3.10211 10.3212L3.79126 11.0459C4.21982 10.6383 4.47004 10.0666 4.4994 9.46656L3.5006 9.41769ZM3.10211 10.3212C2.87239 10.5397 2.58268 10.6374 2.30007 10.6089L2.19993 11.6039C2.78643 11.6629 3.36078 11.4553 3.79126 11.0459L3.10211 10.3212ZM2.30008 11.6039C2.5826 11.5755 2.8722 11.673 3.10189 11.8913L3.79079 11.1665C3.36034 10.7574 2.78619 10.5499 2.19992 10.6089L2.30008 11.6039ZM3.10189 11.8913C3.33351 12.1115 3.48287 12.4359 3.50061 12.7943L4.49939 12.7449C4.4697 12.1451 4.21932 11.5738 3.79079 11.1665L3.10189 11.8913ZM3.5 12.7696C3.5 13.041 3.39889 13.2125 3.26705 13.3239C3.12421 13.4447 2.91566 13.5178 2.6875 13.5178C2.45934 13.5178 2.25079 13.4447 2.10795 13.3239C1.97611 13.2125 1.875 13.041 1.875 12.7696H0.875C0.875 13.3304 1.10202 13.783 1.46236 14.0876C1.81171 14.383 2.25941 14.5178 2.6875 14.5178C3.11559 14.5178 3.56329 14.383 3.91264 14.0876C4.27298 13.783 4.5 13.3304 4.5 12.7696H3.5ZM6.09445 9.39205L6.96945 8.56045L6.28055 7.8356L5.40555 8.6672L6.09445 9.39205ZM6.125 8.19802V14.0214H7.125V8.19802H6.125Z" fill="#1C202A" fill-opacity="0.6"/>
</svg>
