<svg width="18" height="7" viewBox="0 0 18 7" fill="none" xmlns="http://www.w3.org/2000/svg">
<path d="M14.6151 4.85347C14.2029 4.81287 13.8358 5.11412 13.7952 5.52634C13.7546 5.93856 14.0558 6.30564 14.4681 6.34625L14.6151 4.85347ZM16.9166 3.46036L17.6629 3.53468C17.6678 3.48517 17.6678 3.43529 17.6629 3.38577L16.9166 3.46036ZM14.468 0.57539C14.0558 0.61601 13.7546 0.983108 13.7952 1.39533C13.8358 1.80754 14.2029 2.10878 14.6151 2.06816L14.468 0.57539ZM3.53177 6.34625C3.94399 6.30564 4.24524 5.93856 4.20464 5.52634C4.16404 5.11412 3.79695 4.81287 3.38473 4.85347L3.53177 6.34625ZM1.08325 3.46036L0.33697 3.38577C0.332021 3.43529 0.332013 3.48517 0.336944 3.53468L1.08325 3.46036ZM3.3847 2.06816C3.79692 2.10878 4.16402 1.80754 4.20464 1.39533C4.24526 0.983108 3.94402 0.61601 3.5318 0.57539L3.3847 2.06816ZM14.4681 6.34625C16.1332 6.51025 17.4985 5.18503 17.6629 3.53468L16.1703 3.38603C16.0746 4.34677 15.3284 4.92373 14.6151 4.85347L14.4681 6.34625ZM17.6629 3.38577C17.498 1.73586 16.1327 0.411347 14.468 0.57539L14.6151 2.06816C15.3283 1.99789 16.0743 2.57451 16.1703 3.53494L17.6629 3.38577ZM3.38473 4.85347C2.67144 4.92373 1.92524 4.34677 1.82956 3.38603L0.336944 3.53468C0.501305 5.18503 1.86667 6.51025 3.53177 6.34625L3.38473 4.85347ZM1.82953 3.53494C1.92552 2.57451 2.67158 1.99789 3.3847 2.06816L3.5318 0.57539C1.86711 0.411347 0.501863 1.73586 0.33697 3.38577L1.82953 3.53494Z" fill="black"/>
</svg>
