<svg width="16" height="8" viewBox="0 0 16 8" fill="none" xmlns="http://www.w3.org/2000/svg">
<path d="M4.54401 1.53165C4.83763 1.23949 4.83881 0.764617 4.54665 0.470994C4.25449 0.177372 3.77962 0.176187 3.48599 0.468349L4.54401 1.53165ZM0.470994 3.46835C0.177372 3.76051 0.176188 4.23538 0.468349 4.52901C0.760511 4.82263 1.23538 4.82381 1.52901 4.53165L0.470994 3.46835ZM1.52901 3.46835C1.23538 3.17619 0.760511 3.17737 0.468349 3.47099C0.176188 3.76462 0.177372 4.23949 0.470994 4.53165L1.52901 3.46835ZM3.48599 7.53165C3.77962 7.82381 4.25449 7.82263 4.54665 7.52901C4.83881 7.23538 4.83763 6.76051 4.54401 6.46835L3.48599 7.53165ZM1 3.25C0.585787 3.25 0.25 3.58579 0.25 4C0.25 4.41421 0.585787 4.75 1 4.75V3.25ZM15 4.75C15.4142 4.75 15.75 4.41421 15.75 4C15.75 3.58579 15.4142 3.25 15 3.25V4.75ZM3.48599 0.468349L0.470994 3.46835L1.52901 4.53165L4.54401 1.53165L3.48599 0.468349ZM0.470994 4.53165L3.48599 7.53165L4.54401 6.46835L1.52901 3.46835L0.470994 4.53165ZM1 4.75L15 4.75V3.25L1 3.25V4.75Z" fill="#1C202A" fill-opacity="0.6"/>
</svg>
