<svg width="19" height="15" viewBox="0 0 19 15" fill="none" xmlns="http://www.w3.org/2000/svg">
<path fill-rule="evenodd" clip-rule="evenodd" d="M6.63916 7.79998C6.63916 8.46272 5.96825 8.99998 5.14063 8.99998C4.31301 8.99998 3.64209 8.46272 3.64209 7.79998C3.64209 7.13723 4.31301 6.59998 5.14063 6.59998C5.53806 6.59998 5.91922 6.7264 6.20025 6.95145C6.48128 7.17649 6.63916 7.48172 6.63916 7.79998Z" stroke="black" stroke-opacity="0.6" stroke-linecap="round" stroke-linejoin="round"/>
<path fill-rule="evenodd" clip-rule="evenodd" d="M11.1348 7.79998C11.1348 8.46272 10.4639 8.99998 9.63623 8.99998C8.80861 8.99998 8.1377 8.46272 8.1377 7.79998C8.1377 7.13723 8.80861 6.59998 9.63623 6.59998C10.4639 6.59998 11.1348 7.13723 11.1348 7.79998Z" stroke="black" stroke-opacity="0.6" stroke-linecap="round" stroke-linejoin="round"/>
<path fill-rule="evenodd" clip-rule="evenodd" d="M15.6304 7.79998C15.6304 8.46272 14.9595 8.99998 14.1318 8.99998C13.3042 8.99998 12.6333 8.46272 12.6333 7.79998C12.6333 7.13723 13.3042 6.59998 14.1318 6.59998C14.9595 6.59998 15.6304 7.13723 15.6304 7.79998Z" stroke="black" stroke-opacity="0.6" stroke-linecap="round" stroke-linejoin="round"/>
</svg>
