<svg width="18" height="15" viewBox="0 0 18 15" fill="none" xmlns="http://www.w3.org/2000/svg">
<path fill-rule="evenodd" clip-rule="evenodd" d="M6 7.79998C6 8.46272 5.32843 8.99998 4.5 8.99998C3.67157 8.99998 3 8.46272 3 7.79998C3 7.13723 3.67157 6.59998 4.5 6.59998C4.89782 6.59998 5.27936 6.7264 5.56066 6.95145C5.84196 7.17649 6 7.48172 6 7.79998Z" stroke="black" stroke-opacity="0.6" stroke-linecap="round" stroke-linejoin="round"/>
<path fill-rule="evenodd" clip-rule="evenodd" d="M10.5 7.79998C10.5 8.46272 9.82843 8.99998 9 8.99998C8.17157 8.99998 7.5 8.46272 7.5 7.79998C7.5 7.13723 8.17157 6.59998 9 6.59998C9.82843 6.59998 10.5 7.13723 10.5 7.79998Z" stroke="black" stroke-opacity="0.6" stroke-linecap="round" stroke-linejoin="round"/>
<path fill-rule="evenodd" clip-rule="evenodd" d="M15 7.79998C15 8.46272 14.3284 8.99998 13.5 8.99998C12.6716 8.99998 12 8.46272 12 7.79998C12 7.13723 12.6716 6.59998 13.5 6.59998C14.3284 6.59998 15 7.13723 15 7.79998Z" stroke="black" stroke-opacity="0.6" stroke-linecap="round" stroke-linejoin="round"/>
</svg>
