<svg width="19" height="15" viewBox="0 0 19 15" fill="none" xmlns="http://www.w3.org/2000/svg">
<path fill-rule="evenodd" clip-rule="evenodd" d="M6.63904 7.8001C6.63904 8.46284 5.96812 9.0001 5.1405 9.0001C4.31289 9.0001 3.64197 8.46284 3.64197 7.8001C3.64197 7.13736 4.31289 6.6001 5.1405 6.6001C5.53794 6.6001 5.9191 6.72653 6.20013 6.95157C6.48116 7.17661 6.63904 7.48184 6.63904 7.8001Z" stroke="black" stroke-opacity="0.6" stroke-linecap="round" stroke-linejoin="round"/>
<path fill-rule="evenodd" clip-rule="evenodd" d="M11.1346 7.8001C11.1346 8.46284 10.4637 9.0001 9.63611 9.0001C8.80849 9.0001 8.13757 8.46284 8.13757 7.8001C8.13757 7.13736 8.80849 6.6001 9.63611 6.6001C10.4637 6.6001 11.1346 7.13736 11.1346 7.8001Z" stroke="black" stroke-opacity="0.6" stroke-linecap="round" stroke-linejoin="round"/>
<path fill-rule="evenodd" clip-rule="evenodd" d="M15.6303 7.8001C15.6303 8.46284 14.9593 9.0001 14.1317 9.0001C13.3041 9.0001 12.6332 8.46284 12.6332 7.8001C12.6332 7.13736 13.3041 6.6001 14.1317 6.6001C14.9593 6.6001 15.6303 7.13736 15.6303 7.8001Z" stroke="black" stroke-opacity="0.6" stroke-linecap="round" stroke-linejoin="round"/>
</svg>
