<svg width="18" height="18" viewBox="0 0 18 18" fill="none" xmlns="http://www.w3.org/2000/svg">
<path fill-rule="evenodd" clip-rule="evenodd" d="M6 9C6 9.82843 5.32843 10.5 4.5 10.5C3.67157 10.5 3 9.82843 3 9C3 8.17157 3.67157 7.5 4.5 7.5C4.89782 7.5 5.27936 7.65804 5.56066 7.93934C5.84196 8.22064 6 8.60218 6 9Z" stroke="black" stroke-opacity="0.6" stroke-linecap="round" stroke-linejoin="round"/>
<path fill-rule="evenodd" clip-rule="evenodd" d="M10.5 9C10.5 9.82843 9.82843 10.5 9 10.5C8.17157 10.5 7.5 9.82843 7.5 9C7.5 8.17157 8.17157 7.5 9 7.5C9.82843 7.5 10.5 8.17157 10.5 9Z" stroke="black" stroke-opacity="0.6" stroke-linecap="round" stroke-linejoin="round"/>
<path fill-rule="evenodd" clip-rule="evenodd" d="M15 9C15 9.82843 14.3284 10.5 13.5 10.5C12.6716 10.5 12 9.82843 12 9C12 8.17157 12.6716 7.5 13.5 7.5C14.3284 7.5 15 8.17157 15 9Z" stroke="black" stroke-opacity="0.6" stroke-linecap="round" stroke-linejoin="round"/>
</svg>
