<svg width="19" height="15" viewBox="0 0 19 15" fill="none" xmlns="http://www.w3.org/2000/svg">
<path fill-rule="evenodd" clip-rule="evenodd" d="M6.63916 7.8001C6.63916 8.46284 5.96825 9.0001 5.14063 9.0001C4.31301 9.0001 3.64209 8.46284 3.64209 7.8001C3.64209 7.13736 4.31301 6.6001 5.14063 6.6001C5.53806 6.6001 5.91922 6.72653 6.20025 6.95157C6.48128 7.17661 6.63916 7.48184 6.63916 7.8001Z" stroke="black" stroke-opacity="0.6" stroke-linecap="round" stroke-linejoin="round"/>
<path fill-rule="evenodd" clip-rule="evenodd" d="M11.1348 7.8001C11.1348 8.46284 10.4639 9.0001 9.63623 9.0001C8.80861 9.0001 8.1377 8.46284 8.1377 7.8001C8.1377 7.13736 8.80861 6.6001 9.63623 6.6001C10.4639 6.6001 11.1348 7.13736 11.1348 7.8001Z" stroke="black" stroke-opacity="0.6" stroke-linecap="round" stroke-linejoin="round"/>
<path fill-rule="evenodd" clip-rule="evenodd" d="M15.6304 7.8001C15.6304 8.46284 14.9595 9.0001 14.1318 9.0001C13.3042 9.0001 12.6333 8.46284 12.6333 7.8001C12.6333 7.13736 13.3042 6.6001 14.1318 6.6001C14.9595 6.6001 15.6304 7.13736 15.6304 7.8001Z" stroke="black" stroke-opacity="0.6" stroke-linecap="round" stroke-linejoin="round"/>
</svg>
